<svg width="43" height="64" viewBox="0 0 43 64" fill="none" xmlns="http://www.w3.org/2000/svg">
<g clip-path="url(#clip0_1_2036)">
<path d="M21.3334 32C21.3334 29.1711 22.4572 26.458 24.4576 24.4576C26.458 22.4572 29.1711 21.3334 32 21.3334C34.829 21.3334 37.5421 22.4572 39.5425 24.4576C41.5429 26.458 42.6667 29.1711 42.6667 32C42.6667 34.829 41.5429 37.5421 39.5425 39.5425C37.5421 41.5429 34.829 42.6667 32 42.6667C29.1711 42.6667 26.458 41.5429 24.4576 39.5425C22.4572 37.5421 21.3334 34.829 21.3334 32Z" fill="#1ABCFE"/>
<path d="M0 53.3333C0 50.5043 1.12381 47.7912 3.12419 45.7908C5.12458 43.7904 7.83769 42.6666 10.6667 42.6666H21.3333V53.3333C21.3333 56.1623 20.2095 58.8754 18.2091 60.8758C16.2087 62.8762 13.4956 64 10.6667 64C7.83769 64 5.12458 62.8762 3.12419 60.8758C1.12381 58.8754 0 56.1623 0 53.3333Z" fill="#0ACF83"/>
<path d="M21.3334 0V21.3333H32C34.829 21.3333 37.5421 20.2095 39.5425 18.2091C41.5429 16.2087 42.6667 13.4956 42.6667 10.6667C42.6667 7.83769 41.5429 5.12458 39.5425 3.12419C37.5421 1.12381 34.829 0 32 0L21.3334 0Z" fill="#FF7262"/>
<path d="M0 10.6667C0 13.4956 1.12381 16.2087 3.12419 18.2091C5.12458 20.2095 7.83769 21.3333 10.6667 21.3333H21.3333V0H10.6667C7.83769 0 5.12458 1.12381 3.12419 3.12419C1.12381 5.12458 0 7.83769 0 10.6667Z" fill="#F24E1E"/>
<path d="M0 32C0 34.829 1.12381 37.5421 3.12419 39.5425C5.12458 41.5429 7.83769 42.6667 10.6667 42.6667H21.3333V21.3334H10.6667C7.83769 21.3334 5.12458 22.4572 3.12419 24.4576C1.12381 26.458 0 29.1711 0 32Z" fill="#A259FF"/>
</g>
<defs>
<clipPath id="clip0_1_2036">
<rect width="42.6667" height="64" fill="white"/>
</clipPath>
</defs>
</svg>
