<svg width="36" height="36" viewBox="0 0 36 36" fill="none" xmlns="http://www.w3.org/2000/svg">
<path fill-rule="evenodd" clip-rule="evenodd" d="M7.06 5.25C6.06036 5.25 5.25 6.06036 5.25 7.06V28.9399C5.25 29.9396 6.06036 30.7499 7.06 30.7499H28.94C29.9396 30.7499 30.75 29.9396 30.75 28.9399V7.06C30.75 6.06036 29.9396 5.25 28.94 5.25H7.06ZM10.9736 13.169C12.1953 13.169 13.1857 12.1786 13.1857 10.9569C13.1857 9.7352 12.1953 8.7448 10.9736 8.7448C9.75186 8.7448 8.76146 9.7352 8.76146 10.9569C8.76146 12.1786 9.75186 13.169 10.9736 13.169ZM15.2116 14.8039H18.8778V16.4834C18.8778 16.4834 19.8727 14.4936 22.5796 14.4936C24.9943 14.4936 26.9946 15.6831 26.9946 19.3089V26.9546H23.1954V20.2354C23.1954 18.0965 22.0535 17.8613 21.1833 17.8613C19.3775 17.8613 19.0683 19.4189 19.0683 20.5144V26.9546H15.2116V14.8039ZM12.9019 14.8039H9.04522V26.9547H12.9019V14.8039Z" fill="#4B5563"/>
</svg>
